<svg width="36" height="36" viewBox="0 0 36 36" fill="none" xmlns="http://www.w3.org/2000/svg">
<path d="M18 32.6752C18.3918 32.6752 18.7534 32.63 19.1602 32.5999L20.0341 34.2573C20.1998 34.5887 20.5312 34.7695 20.9381 34.7093C21.3148 34.6339 21.586 34.3628 21.6312 33.9559L21.9024 32.1328C22.6406 31.9369 23.3789 31.6507 24.1021 31.3343L25.4582 32.5547C25.7444 32.8259 26.106 32.8862 26.4827 32.6752C26.8142 32.4944 26.9498 32.1328 26.8744 31.7411L26.4978 29.933C27.1155 29.4961 27.7333 28.9989 28.2907 28.4414L29.9782 29.1496C30.355 29.3002 30.7015 29.2249 30.9879 28.8784C31.244 28.6071 31.2739 28.2154 31.0632 27.8839L30.0838 26.317C30.5358 25.6842 30.8974 25.0061 31.244 24.283L33.0821 24.3733C33.4738 24.3884 33.8052 24.1775 33.9409 23.8008C34.0613 23.4241 33.9409 23.0625 33.6243 22.8214L32.1932 21.6764C32.3891 20.9531 32.5397 20.1696 32.5999 19.356L34.3476 18.8137C34.7244 18.678 34.9654 18.3918 34.9654 17.985C34.9654 17.5932 34.7244 17.3069 34.3476 17.1714L32.5999 16.6138C32.5397 15.8002 32.3891 15.0469 32.1932 14.3086L33.6243 13.1485C33.9409 12.9225 34.0613 12.5759 33.9409 12.1992C33.8052 11.8225 33.4738 11.6116 33.0821 11.6266L31.244 11.7021C30.8974 10.9788 30.5358 10.3008 30.0838 9.66799L31.0632 8.10102C31.2739 7.78461 31.244 7.39285 30.9879 7.12163C30.7015 6.77513 30.355 6.68468 29.9782 6.85047L28.2907 7.52849C27.7333 7.00109 27.1155 6.4888 26.4978 6.05192L26.8744 4.25892C26.9498 3.85212 26.8142 3.49052 26.4827 3.30968C26.106 3.1138 25.7444 3.14395 25.4582 3.44532L24.1021 4.63564C23.3789 4.31922 22.6406 4.06304 21.9024 3.85212L21.6312 2.02904C21.586 1.63729 21.3148 1.35102 20.9381 1.29072C20.5312 1.23049 20.1998 1.39622 20.0341 1.72767L19.1602 3.38509C18.7534 3.35494 18.3918 3.32479 18 3.32479C17.5932 3.32479 17.2316 3.35494 16.8097 3.38509L15.951 1.72767C15.7852 1.39622 15.4537 1.23049 15.0319 1.29072C14.6551 1.35102 14.399 1.63729 14.3387 2.02904L14.0826 3.83708C13.3293 4.06304 12.591 4.31922 11.8828 4.63564L10.5268 3.44532C10.2255 3.14395 9.86386 3.1138 9.50226 3.30968C9.1708 3.49052 9.03516 3.85212 9.1105 4.25892L9.48715 6.05192C8.85439 6.4888 8.23666 7.00109 7.67911 7.52849L6.00672 6.85047C5.63001 6.68468 5.2684 6.77513 4.98214 7.12163C4.74113 7.39285 4.71098 7.78461 4.90686 8.08592L5.90123 9.66799C5.44924 10.3008 5.08763 10.9788 4.74113 11.7021L2.88784 11.6266C2.49614 11.6116 2.16462 11.8225 2.04409 12.1992C1.92355 12.5759 2.02904 12.9225 2.34546 13.1485L3.79189 14.3086C3.59601 15.0469 3.43028 15.8002 3.38509 16.6138L1.63729 17.1714C1.24553 17.2918 1.03461 17.5781 1.03461 17.985C1.03461 18.3918 1.24553 18.678 1.63729 18.8137L3.38509 19.3711C3.43028 20.1696 3.59601 20.9531 3.79189 21.6764L2.34546 22.8214C2.02904 23.0625 1.92355 23.4241 2.04409 23.8008C2.16462 24.1775 2.49614 24.3884 2.88784 24.3733L4.74113 24.283C5.08763 25.0061 5.44924 25.6842 5.88619 26.317L4.9219 27.8839C4.69587 28.2154 4.72602 28.6071 4.98214 28.8784C5.2684 29.2249 5.63001 29.3002 6.00672 29.1496L7.67911 28.4414C8.23666 28.9989 8.85439 29.4961 9.48715 29.933L9.1105 31.7411C9.03516 32.1328 9.1708 32.4944 9.50226 32.6752C9.87891 32.8862 10.2405 32.8259 10.5268 32.5547L11.8678 31.3343C12.591 31.6507 13.3293 31.9369 14.0826 32.1328L14.3387 33.9559C14.399 34.3628 14.6551 34.6339 15.0319 34.7093C15.4537 34.7695 15.7852 34.5887 15.951 34.2573L16.8097 32.5999C17.2165 32.63 17.5932 32.6752 18 32.6752ZM21.7819 17.0357C21.0737 15.1373 19.6876 14.0977 17.9548 14.0977C17.6987 14.0977 17.3974 14.1278 16.9152 14.2332L12.591 6.85047C14.2032 6.05192 16.0413 5.61497 18 5.61497C24.5692 5.61497 29.7221 10.6021 30.1893 17.0357H21.7819ZM5.76565 18C5.76565 13.8114 7.73941 10.12 10.8583 7.8901L15.2126 15.3181C14.399 16.1618 14.0224 17.0809 14.0224 18.0602C14.0224 19.0095 14.384 19.8834 15.2126 20.7573L10.7528 28.0497C7.70927 25.8047 5.76565 22.1585 5.76565 18ZM16.1468 18.0452C16.1468 17.0207 17.0207 16.2221 17.985 16.2221C19.0095 16.2221 19.8533 17.0207 19.8533 18.0452C19.8533 19.0547 19.0095 19.8834 17.985 19.8834C17.0207 19.8834 16.1468 19.0547 16.1468 18.0452ZM18 30.385C15.9961 30.385 14.1278 29.918 12.4855 29.1044L16.9152 21.8571C17.3823 21.9777 17.6987 22.0078 17.9548 22.0078C19.7026 22.0078 21.0887 20.938 21.7819 18.9944H30.1893C29.707 25.3979 24.5541 30.385 18 30.385Z" fill="white"/>
</svg>
